<svg xmlns="http://www.w3.org/2000/svg" xmlns:xlink="http://www.w3.org/1999/xlink" version="1.1" x="0px" y="0px" viewBox="0 0 100 125" enable-background="new 0 0 100 100" xml:space="preserve"><path fill="#000000" d="M10.699,71.729c1.057,0.705,2.166,1.063,3.293,1.063c1.314,0,2.886-0.39,4.67-2.107  c7.949,19.074,24.141,20.593,29.109,20.593c1.048,0,1.792-0.117,2.153-0.155c0.362,0.038,1.108-0.021,2.157-0.021l0,0  c4.994,0,21.274-1.452,29.191-20.705c1.812,1.749,3.404,2.134,4.734,2.134c0,0,0.003,0,0.004,0c1.126,0,2.232-0.231,3.291-0.936  c7.078-4.72,10.74-17.421,8.335-29.08C94.619,27.877,83.312,17.719,66.615,14.66l-0.385-0.072  c-4.934-2.209-10.684-3.421-16.307-3.421c-4.134,0-10.378,0.623-16.755,3.554C16.592,17.827,5.368,27.949,2.363,42.521  C-0.042,54.18,3.62,67.01,10.699,71.729z M50.05,74.963c-3.086-1.823-5.896-4.149-6.216-5.172c0.327-0.223,1.676-0.886,6.193-0.886  c2.8,0,5.875,0.568,6.575,1.199C56.428,70.506,55.448,72.022,50.05,74.963z M94.104,43.313c2.345,11.37-1.706,22.14-6.803,25.537  c-0.462,0.309-0.885,0.582-1.29,0.582H86.01c-0.563,0-1.749-0.359-3.401-2.599l0.044-0.117l-0.498-0.739  C75.239,55.737,69.967,27.314,68.5,18.755C87.218,23.155,92.58,35.925,94.104,43.313z M35.339,17.716  c5.553-2.404,10.956-2.906,14.584-2.906c5.098,0,10.3,1.121,14.762,3.107c1.098,6.7,6.404,37.272,13.98,49.45  c-6.58,18.478-20.74,20.636-26.584,20.636c-0.001,0-0.001,0-0.001,0c-0.13,0-0.252-0.004-0.369-0.008v-9.834  c6.56-3.561,9.1-6.253,8.438-8.928c-0.878-3.555-7.373-3.938-10.129-3.938c-4.101,0-8.911,0.404-9.721,3.557  c-0.871,3.389,4.099,6.994,7.8,9.156v9.718c-0.106,0.001-0.214,0.004-0.33,0.004c-5.821,0-19.92-1.999-26.529-20.33  c1.643-2.608,3.42-6.437,5.306-12.029C31.398,41.057,34.616,22.184,35.339,17.716z M5.897,43.251  c1.523-7.389,6.885-20.096,25.604-24.496c-0.784,4.588-2.612,14.614-5.173,24.536c-1.806,6.99-3.492,12.103-5.01,15.841  c-0.066,0.162-0.133,0.327-0.199,0.487c-0.015,0.036-0.03,0.072-0.044,0.105c-1.054,2.512-2.163,4.693-3.32,6.377l-0.46,0.662  c-1.602,2.095-2.752,2.417-3.302,2.417c-0.408,0-0.831-0.148-1.291-0.455C7.603,65.328,3.552,54.622,5.897,43.251z"/><path fill="#000000" d="M39.406,53.793c3.524,0,6.391-2.866,6.391-6.39s-2.867-6.391-6.391-6.391c-3.522,0-6.39,2.868-6.39,6.391  S35.883,53.793,39.406,53.793z M39.406,44.622c1.534,0,2.782,1.249,2.782,2.782s-1.248,2.782-2.782,2.782  c-1.534,0-2.781-1.249-2.781-2.782S37.872,44.622,39.406,44.622z"/><path fill="#000000" d="M60.154,53.793c3.525,0,6.392-2.866,6.392-6.39s-2.866-6.391-6.392-6.391c-3.522,0-6.389,2.868-6.389,6.391  S56.632,53.793,60.154,53.793z M60.154,44.622c1.535,0,2.782,1.249,2.782,2.782s-1.247,2.782-2.782,2.782  c-1.533,0-2.781-1.249-2.781-2.782S58.621,44.622,60.154,44.622z"/>
<!-- <text x="0" y="115" fill="#000000" font-size="5px" font-weight="bold" font-family="'Helvetica Neue', Helvetica, Arial-Unicode, Arial, Sans-serif">Created by Iconic</text><text x="0" y="120" fill="#000000" font-size="5px" font-weight="bold" font-family="'Helvetica Neue', Helvetica, Arial-Unicode, Arial, Sans-serif">from the Noun Project</text>
-->
</svg>