<svg xmlns="http://www.w3.org/2000/svg" xmlns:xlink="http://www.w3.org/1999/xlink" version="1.1" x="0px" y="0px" viewBox="0 0 100 125" enable-background="new 0 0 100 100" xml:space="preserve"><g><path d="M83.541,91.74H62.5c-1.381,0-2.5-1.119-2.5-2.5V63.5c0-5.514-4.486-10-10-10s-10,4.486-10,10v25.74   c0,1.381-1.119,2.5-2.5,2.5H16.459c-1.381,0-2.5-1.119-2.5-2.5V34.157c0-0.814,0.396-1.578,1.063-2.046L48.356,8.714   c0.857-0.602,2-0.605,2.861-0.008l33.748,23.396c0.673,0.467,1.075,1.235,1.075,2.055V89.24   C86.041,90.621,84.922,91.74,83.541,91.74z M65,86.74h16.041V35.466L49.802,13.809L18.959,35.457V86.74H35V63.5   c0-8.271,6.729-15,15-15s15,6.729,15,15V86.74z"/></g>
<!-- <text x="0" y="115" fill="#000000" font-size="5px" font-weight="bold" font-family="'Helvetica Neue', Helvetica, Arial-Unicode, Arial, Sans-serif">Created by myladkings</text><text x="0" y="120" fill="#000000" font-size="5px" font-weight="bold" font-family="'Helvetica Neue', Helvetica, Arial-Unicode, Arial, Sans-serif">from the Noun Project</text> -->
</svg>