<svg xmlns="http://www.w3.org/2000/svg" data-name="Layer 1" viewBox="0 0 100 125" x="0px" y="0px"><title>3Artboard 56</title><path d="M71.68,7.74a27.59,27.59,0,0,0-19.49,8L50,18l-2.19-2.19a27.58,27.58,0,0,0-19.49-8,26.06,26.06,0,0,0-18.9,7.9,26.55,26.55,0,0,0,.36,37.18L48.66,91.7a1.9,1.9,0,0,0,2.69,0l36.2-36.2,2.68-2.68a26.55,26.55,0,0,0,.36-37.18A26.06,26.06,0,0,0,71.68,7.74ZM81.27,44.8,79.06,47,50,76.08,18.73,44.81a15.18,15.18,0,0,1-3.59-16.32,13.87,13.87,0,0,1,13.17-8.75,15.65,15.65,0,0,1,11,4.52l8.06,8.12a3.68,3.68,0,0,0,5.22,0l8.06-8.12a15.66,15.66,0,0,1,11-4.52,13.87,13.87,0,0,1,13.17,8.75A15.17,15.17,0,0,1,81.27,44.8Z"/>
<!-- <text x="0" y="115" fill="#000000" font-size="5px" font-weight="bold" font-family="'Helvetica Neue', Helvetica, Arial-Unicode, Arial, Sans-serif">Created by Gregor Cresnar</text><text x="0" y="120" fill="#000000" font-size="5px" font-weight="bold" font-family="'Helvetica Neue', Helvetica, Arial-Unicode, Arial, Sans-serif">from the Noun Project</text> -->
</svg>